<svg width="32" height="19" viewBox="0 0 32 19" fill="none" xmlns="http://www.w3.org/2000/svg">
<path d="M30.6198 4.55958C29.9322 3.26784 28.9052 2.18823 27.6493 1.43707C26.3935 0.685922 24.9564 0.291713 23.4931 0.296926H0.924598C0.771619 0.298216 0.622421 0.344618 0.495694 0.430318C0.368967 0.516019 0.270345 0.637207 0.212181 0.778704C0.154018 0.920201 0.138899 1.07571 0.168719 1.22576C0.198539 1.37582 0.271972 1.51373 0.379819 1.62224L5.29557 6.56666C5.51061 6.78284 5.76627 6.95437 6.04785 7.07137C6.32943 7.18838 6.63136 7.24855 6.93628 7.24843H22.8464C23.1158 7.24571 23.3831 7.29609 23.6331 7.39668C23.8831 7.49727 24.1108 7.64612 24.3032 7.83471C24.4956 8.0233 24.649 8.24795 24.7547 8.49584C24.8603 8.74372 24.916 9.00997 24.9188 9.2794C24.9215 9.54883 24.8711 9.81616 24.7705 10.0661C24.6699 10.3161 24.5211 10.5438 24.3325 10.7362C24.1439 10.9287 23.9192 11.0821 23.6714 11.1877C23.4235 11.2933 23.1572 11.3491 22.8878 11.3518H11.9189C11.7657 11.3525 11.616 11.3984 11.4888 11.4839C11.3616 11.5693 11.2625 11.6905 11.204 11.8321C11.1454 11.9737 11.13 12.1295 11.1597 12.2799C11.1894 12.4302 11.2629 12.5684 11.371 12.6771L16.2899 17.6247C16.5048 17.841 16.7605 18.0127 17.0421 18.1297C17.3237 18.2467 17.6257 18.3068 17.9306 18.3065H22.891C29.3455 18.3065 34.2262 11.406 30.6198 4.5564" fill="white"/>
</svg>
