<svg width="156" height="18" viewBox="0 0 156 18" fill="none" xmlns="http://www.w3.org/2000/svg">
<path d="M4.31572 3.71143V14.3057H7.02429C7.71222 14.2973 8.39175 14.1534 9.02399 13.8821C9.65623 13.6108 10.2288 13.2175 10.7088 12.7247C11.1889 12.2319 11.5671 11.6492 11.8217 11.0101C12.0764 10.371 12.2025 9.68792 12.1929 9C12.2124 8.3103 12.093 7.62371 11.8417 6.98112C11.5904 6.33853 11.2124 5.75308 10.7301 5.25963C10.2478 4.76617 9.67122 4.37481 9.03457 4.10883C8.39792 3.84285 7.71426 3.7077 7.02429 3.71143H4.31572ZM7.02429 0.389999C12.0729 0.389999 15.8914 4.20429 15.8914 9C15.8914 13.7957 12.0729 17.6314 7.02429 17.6314H1.05C0.936337 17.6314 0.827328 17.5863 0.746955 17.5059C0.666582 17.4255 0.621429 17.3165 0.621429 17.2029V0.835714C0.621429 0.722049 0.666582 0.613041 0.746955 0.532668C0.827328 0.452295 0.936337 0.407142 1.05 0.407142L7.02429 0.389999Z" fill="white"/>
<path d="M28.9071 14.6743C30.0281 14.6777 31.1248 14.3485 32.0586 13.7284C32.9924 13.1083 33.7213 12.2251 34.153 11.1906C34.5847 10.1562 34.6998 9.01687 34.4838 7.91694C34.2678 6.81701 33.7305 5.80586 32.9396 5.01144C32.1488 4.21702 31.1401 3.67504 30.0412 3.45406C28.9422 3.23309 27.8024 3.34306 26.766 3.77006C25.7296 4.19706 24.8431 4.9219 24.2188 5.85286C23.5944 6.78382 23.2603 7.87907 23.2586 9C23.2586 10.5005 23.8528 11.9399 24.9114 13.0033C25.97 14.0667 27.4067 14.6675 28.9071 14.6743ZM28.9071 0C34.2214 0 38.2843 4.08429 38.2843 9C38.2843 13.9157 34.2214 18 28.9071 18C23.5929 18 19.5643 13.9371 19.5643 9C19.5643 4.06286 23.6271 0 28.9071 0Z" fill="white"/>
<path d="M51.1929 14.6743C52.3125 14.6717 53.4063 14.3375 54.3362 13.7138C55.266 13.0901 55.9902 12.2048 56.4173 11.1698C56.8444 10.1348 56.9553 8.99649 56.7359 7.89853C56.5165 6.80057 55.9768 5.79223 55.1848 5.00081C54.3927 4.20939 53.384 3.67038 52.2859 3.45184C51.1877 3.2333 50.0495 3.34503 49.0148 3.77292C47.9801 4.2008 47.0954 4.92566 46.4724 5.85598C45.8494 6.78629 45.516 7.88034 45.5143 9C45.5143 9.74552 45.6612 10.4837 45.9466 11.1724C46.2321 11.8612 46.6504 12.4869 47.1778 13.0138C47.7051 13.5408 48.3312 13.9587 49.0201 14.2436C49.709 14.5285 50.4473 14.6748 51.1929 14.6743ZM51.1929 0C56.49 0 60.5529 4.06286 60.5529 9C60.5529 13.9371 56.4729 18 51.1929 18C45.9129 18 41.8157 13.9371 41.8157 9C41.8157 4.06286 45.8786 0 51.1929 0Z" fill="white"/>
<path d="M72.9428 3.71144H69.1243V8.27144H72.9428C73.2434 8.28528 73.5436 8.23836 73.8256 8.1335C74.1076 8.02863 74.3655 7.86796 74.584 7.66111C74.8024 7.45426 74.9769 7.20547 75.097 6.92963C75.2171 6.65379 75.2803 6.35656 75.2829 6.05572C75.2936 5.74553 75.2405 5.43643 75.1267 5.14766C75.0129 4.85889 74.8409 4.59661 74.6214 4.37714C74.402 4.15766 74.1397 3.98569 73.8509 3.8719C73.5621 3.75812 73.253 3.70495 72.9428 3.71572M65.43 0.835722C65.43 0.722058 65.4751 0.613049 65.5555 0.532676C65.6359 0.452303 65.7449 0.40715 65.8586 0.40715H73.05C76.4786 0.40715 78.96 2.91858 78.96 6.07287C78.9725 7.11834 78.6905 8.14622 78.1463 9.039C77.6022 9.93178 76.8178 10.6534 75.8828 11.1214L79.2 16.9843C79.2457 17.0512 79.2714 17.1297 79.2743 17.2107C79.2771 17.2917 79.257 17.3718 79.2161 17.4417C79.1753 17.5117 79.1155 17.5687 79.0436 17.6061C78.9717 17.6434 78.8907 17.6597 78.81 17.6529H75.9C75.8198 17.6546 75.7408 17.6339 75.6719 17.593C75.6029 17.5521 75.5469 17.4926 75.51 17.4214L72.3128 11.6186H69.1114V17.19C69.1114 17.3037 69.0663 17.4127 68.9859 17.4931C68.9055 17.5734 68.7965 17.6186 68.6828 17.6186H65.88C65.7663 17.6186 65.6573 17.5734 65.5769 17.4931C65.4966 17.4127 65.4514 17.3037 65.4514 17.19L65.43 0.835722Z" fill="white"/>
<path d="M88.59 3.79286V14.3871H91.2986C91.9861 14.3793 92.6654 14.2361 93.2976 13.9655C93.9298 13.695 94.5024 13.3026 94.9828 12.8106C95.4632 12.3187 95.842 11.7369 96.0974 11.0985C96.3528 10.4601 96.4799 9.77756 96.4714 9.09C96.4922 8.39923 96.3735 7.71136 96.1225 7.06748C95.8714 6.42361 95.4932 5.83693 95.0104 5.34249C94.5275 4.84805 93.95 4.456 93.3122 4.18975C92.6745 3.9235 91.9896 3.78852 91.2986 3.79286H88.59ZM91.2986 0.467148C96.3471 0.467148 100.166 4.28572 100.166 9.09C100.166 13.8943 96.3471 17.7129 91.2986 17.7129H85.3414C85.2278 17.7129 85.1188 17.6677 85.0384 17.5873C84.958 17.507 84.9129 17.398 84.9129 17.2843V0.917148C84.9129 0.803484 84.958 0.694475 85.0384 0.614102C85.1188 0.533729 85.2278 0.488576 85.3414 0.488576L91.2986 0.467148Z" fill="white"/>
<path d="M111.433 4.68L109.337 10.3457H113.524L111.433 4.68ZM108.107 13.5471L106.736 17.3186C106.707 17.4081 106.649 17.4855 106.571 17.539C106.494 17.5924 106.401 17.6189 106.307 17.6143H103.333C103.258 17.6214 103.182 17.6086 103.113 17.577C103.045 17.5454 102.985 17.4962 102.942 17.4344C102.898 17.3726 102.872 17.3004 102.865 17.2251C102.859 17.1498 102.872 17.0741 102.904 17.0057L109.333 0.655719C109.364 0.568613 109.423 0.493985 109.5 0.442998C109.577 0.392011 109.669 0.367405 109.761 0.372862H113.091C113.184 0.367405 113.276 0.392011 113.353 0.442998C113.43 0.493985 113.489 0.568613 113.52 0.655719L119.949 17.0057C119.981 17.0741 119.994 17.1498 119.987 17.2251C119.981 17.3004 119.954 17.3726 119.911 17.4344C119.867 17.4962 119.808 17.5454 119.74 17.577C119.671 17.6086 119.595 17.6214 119.52 17.6143H116.546C116.452 17.6189 116.359 17.5924 116.281 17.539C116.204 17.4855 116.146 17.4081 116.117 17.3186L114.746 13.5471H108.107Z" fill="white"/>
<path d="M123.399 5.04857C123.399 2.33999 125.739 -6.1458e-06 129.433 -6.1458e-06C131.414 -0.0474221 133.336 0.676292 134.794 2.01857C134.838 2.0587 134.873 2.10741 134.896 2.16162C134.92 2.21583 134.932 2.27438 134.932 2.33357C134.932 2.39275 134.92 2.4513 134.896 2.50551C134.873 2.55973 134.838 2.60843 134.794 2.64857L133.144 4.28571C133.104 4.32588 133.057 4.35776 133.005 4.37952C132.953 4.40128 132.897 4.41248 132.84 4.41248C132.783 4.41248 132.727 4.40128 132.675 4.37952C132.623 4.35776 132.576 4.32588 132.536 4.28571C131.752 3.57373 130.736 3.17284 129.677 3.15857C128.199 3.15857 127.106 4.01571 127.106 5.00571C127.106 8.20714 135.84 6.35999 135.84 12.5186C135.836 15.6386 133.479 18 129.309 18C128.156 18.0139 127.012 17.7999 125.943 17.3704C124.874 16.9409 123.9 16.3042 123.077 15.4971C123.034 15.457 122.999 15.4083 122.975 15.3541C122.951 15.2999 122.939 15.2413 122.939 15.1821C122.939 15.1229 122.951 15.0644 122.975 15.0102C122.999 14.956 123.034 14.9073 123.077 14.8671L124.671 13.2729C124.711 13.2307 124.76 13.1971 124.813 13.1742C124.866 13.1513 124.924 13.1395 124.982 13.1395C125.04 13.1395 125.098 13.1513 125.151 13.1742C125.205 13.1971 125.253 13.2307 125.293 13.2729C126.307 14.2463 127.655 14.7952 129.06 14.8071C130.907 14.8071 132.124 13.8214 132.124 12.5871C132.124 9.38571 123.394 11.2329 123.394 5.07428" fill="white"/>
<path d="M151.68 0.814283V7.28571H144.287V0.814283C144.287 0.700619 144.242 0.59161 144.162 0.511237C144.081 0.430865 143.972 0.385712 143.859 0.385712H141.056C140.942 0.385712 140.833 0.430865 140.753 0.511237C140.672 0.59161 140.627 0.700619 140.627 0.814283V17.1643C140.627 17.2779 140.672 17.387 140.753 17.4673C140.833 17.5477 140.942 17.5929 141.056 17.5929H143.859C143.972 17.5929 144.081 17.5477 144.162 17.4673C144.242 17.387 144.287 17.2779 144.287 17.1643V10.59H151.676V17.1643C151.676 17.2779 151.721 17.387 151.801 17.4673C151.882 17.5477 151.991 17.5929 152.104 17.5929H154.907C155.021 17.5929 155.13 17.5477 155.21 17.4673C155.291 17.387 155.336 17.2779 155.336 17.1643V0.814283C155.336 0.700619 155.291 0.59161 155.21 0.511237C155.13 0.430865 155.021 0.385712 154.907 0.385712H152.104C151.991 0.386841 151.883 0.432492 151.804 0.512743C151.725 0.592993 151.68 0.701358 151.68 0.814283Z" fill="white"/>
</svg>
