<svg width="40" height="40" viewBox="0 0 40 40" fill="none" xmlns="http://www.w3.org/2000/svg">
<rect width="40" height="40" rx="20" fill="#EB1700"/>
<g clip-path="url(#clip0_1_38)">
<path d="M20.2929 25.2929C19.9024 25.6834 19.9024 26.3166 20.2929 26.7071C20.6834 27.0976 21.3166 27.0976 21.7071 26.7071L27.1578 21.2564C27.242 21.1722 27.3427 21.0717 27.4241 20.9758C27.5183 20.8648 27.6439 20.6962 27.7195 20.4635C27.8174 20.1623 27.8174 19.8377 27.7195 19.5365C27.6439 19.3038 27.5183 19.1352 27.4241 19.0242C27.3427 18.9283 27.242 18.8278 27.1578 18.7436L21.7071 13.2929C21.3166 12.9024 20.6834 12.9024 20.2929 13.2929C19.9024 13.6834 19.9024 14.3166 20.2929 14.7071L24.5858 19H13C12.4477 19 12 19.4477 12 20C12 20.5523 12.4477 21 13 21H24.5858L20.2929 25.2929Z" fill="white"/>
</g>
<defs>
<clipPath id="clip0_1_38">
<rect width="24" height="24" fill="white" transform="translate(8 8)"/>
</clipPath>
</defs>
</svg>
