<svg width="151" height="126" viewBox="0 0 151 126" fill="none" xmlns="http://www.w3.org/2000/svg">
<path d="M13.8741 55.9235C-13.241 34.136 4.16093 -5.45788 36.7199 6.91373C47.649 11.5491 70.2575 -11.81 86.8987 8.64203C97.0822 21.1579 104.032 15.1291 125.742 11.9719C151.729 9.38981 167.507 66.4137 120.43 79.7958C96.5069 84.4895 93.0264 106.438 61.9353 101.704C30.8439 96.97 40.9894 77.7112 13.8741 55.9235Z" fill="#E1F6FA"/>
<path d="M93.9827 50.6205C93.9713 61.3193 93.8196 72.0184 93.9244 82.7165C94.021 92.5015 94.283 102.307 94.1246 112.094C94.0181 118.59 92.4854 125.333 80.7749 125.632C75.7573 125.759 70.9266 125.71 65.918 125.399C63.1209 125.225 59.3499 125.55 55.5601 125.23C48.3068 124.617 44.6856 119.516 44.5552 111.988C44.3461 99.8559 44.0169 44.0008 44.257 31.8698C44.3217 28.5654 44.2176 25.7245 44.9806 22.4808C45.7242 19.3226 49.0677 17.0959 51.979 16.9806C59.8696 16.6665 67.7763 16.5742 75.6728 16.6651C79.1035 16.7037 83.3313 16.6364 86.7503 17.0858C89.877 17.4974 92.6238 18.5591 93.061 22.4822C93.6511 27.7882 93.8417 33.4698 93.9171 38.711C93.9708 42.682 93.9864 46.6506 93.9827 50.6205Z" fill="#262626"/>
<path d="M63.812 25.5787C63.7079 25.2261 63.7667 24.9214 64.0107 24.6746C64.0352 24.648 64.0674 24.6344 64.1008 24.6335C66.9174 24.5528 69.7309 24.4706 72.5457 24.3931C72.8247 24.3845 73.103 24.4141 73.3821 24.4008C73.7009 24.3866 73.8803 24.4939 73.7776 24.9202C73.706 25.2199 73.8546 25.6658 73.3193 25.5958C70.6087 25.2422 67.8963 25.516 65.1847 25.6037C64.7542 25.5502 64.3251 25.4999 63.8986 25.6314C63.8633 25.6419 63.8239 25.6203 63.812 25.5787Z" fill="#606262"/>
<path d="M69.4712 21.2084C69.4262 21.4639 69.257 21.6358 68.9978 21.7595C68.9674 21.77 68.9369 21.7805 68.9049 21.7878C68.8088 21.8129 68.7099 21.822 68.6144 21.8122C68.3304 21.7616 68.1545 21.5574 68.0766 21.3167C68.0647 21.2782 68.0544 21.2366 68.0456 21.195C67.9641 20.7442 68.0903 20.2704 68.6035 20.0961C68.6387 20.0889 68.6739 20.0832 68.7075 20.0807C68.875 20.0683 69.019 20.1159 69.1618 20.2223C69.2055 20.2646 69.2397 20.3084 69.2689 20.3567C69.2827 20.3793 69.295 20.4034 69.3072 20.4276C69.3256 20.4647 69.3424 20.5016 69.356 20.5385C69.3695 20.5739 69.3816 20.6108 69.3903 20.646C69.4218 20.8203 69.467 20.9487 69.478 21.1097C69.4775 21.14 69.4768 21.1734 69.4712 21.2084Z" fill="#606262"/>
<path d="M58.3426 25.75C58.023 25.8773 57.7075 25.8055 57.3883 25.5997C57.3522 25.5736 57.3193 25.5458 57.288 25.5148C57.1928 25.4252 57.1137 25.3185 57.0588 25.2011C56.9148 24.8462 57.0238 24.5026 57.241 24.2459C57.2768 24.2036 57.3143 24.163 57.3564 24.1271C57.8127 23.7144 58.4362 23.5265 58.9939 23.9855C59.0282 24.0214 59.0578 24.0571 59.0841 24.0926C59.2158 24.2737 59.2643 24.469 59.2435 24.706C59.226 24.7853 59.199 24.8565 59.1658 24.9211C59.1507 24.9541 59.131 24.9856 59.1129 25.0156C59.0848 25.0628 59.0536 25.1067 59.0209 25.1475C58.9899 25.1883 58.9572 25.2275 58.9229 25.2649C58.7493 25.4223 58.6348 25.5617 58.4602 25.6872C58.4264 25.7087 58.3877 25.7303 58.3426 25.75Z" fill="#606262"/>
<path d="M91.6278 105.117C90.5233 86.1658 91.8813 67.3941 90.8518 48.4375C90.5904 43.6467 90.6817 40.9897 90.5884 36.2309C90.5254 33.0195 90.2659 32.0822 90.1893 30.7011C90.0946 29.0297 76.3126 30.2834 75.1723 30.2647C67.3899 30.1317 57.7019 30.5457 49.1712 30.7701C48.7981 30.7799 48.46 31.0294 48.3732 31.4545C48.033 33.1219 48.0857 36.6851 48.0447 38.0527C47.7661 47.4126 47.9983 56.4898 47.7612 65.849C47.4621 77.5966 48.8611 85.5571 48.6182 97.5226C48.5487 100.973 48.6019 104.586 48.8894 109.342C48.9526 110.379 51.2176 110.397 51.6768 110.378C63.8633 109.862 79.0278 111.248 91.2993 109.933C91.5051 109.912 91.6593 109.7 91.6531 109.459C91.6076 107.795 91.7326 108.073 91.6346 106.411L91.6278 105.117Z" fill="white"/>
<path d="M73.2022 118.477C73.2193 119.344 72.9572 120.239 72.4008 121.036C71.795 121.908 70.9415 122.351 69.8794 122.324C68.1184 122.282 66.6726 121.631 65.7395 120.066C65.3991 119.494 65.1968 118.875 65.225 118.203C65.2404 117.84 65.3401 117.485 65.5044 117.165C65.9806 116.237 66.581 115.397 67.4615 114.805C68.1301 114.355 68.8772 114.206 69.6693 114.347C71.4264 114.658 72.8516 115.851 73.1628 117.676C73.2027 117.908 73.1836 118.139 73.2022 118.477Z" fill="#606262"/>
<g opacity="0.899994">
<g opacity="0.899994">
<g opacity="0.899994">
<g opacity="0.899994">
<path opacity="0.899994" d="M139.725 77.5166L136.264 77.525" stroke="#3B5648" stroke-width="0.005775" stroke-miterlimit="10"/>
</g>
<g opacity="0.899994">
<path opacity="0.899994" d="M129.512 55.9559L132.481 54.1735" stroke="#3B5648" stroke-width="0.005775" stroke-miterlimit="10"/>
</g>
<g opacity="0.899994">
<path opacity="0.899994" d="M84.3924 94.8754L87.3616 93.0941" stroke="#3B5648" stroke-width="0.005775" stroke-miterlimit="10"/>
</g>
<g opacity="0.899994">
<path opacity="0.899994" d="M76.3181 72.8564L79.7804 72.8096" stroke="#3B5648" stroke-width="0.005775" stroke-miterlimit="10"/>
</g>
<g opacity="0.899994">
<path opacity="0.899994" d="M85.0905 52.4473L87.7662 54.6452" stroke="#3B5648" stroke-width="0.005775" stroke-miterlimit="10"/>
</g>
<g opacity="0.899994">
<path opacity="0.899994" d="M124.476 92.7614L127.15 94.9588" stroke="#3B5648" stroke-width="0.005775" stroke-miterlimit="10"/>
</g>
</g>
</g>
</g>
<path d="M109.219 41.8262L109.413 45.2914" stroke="#3B5648" stroke-width="0.005775" stroke-miterlimit="10"/>
<path d="M81.1211 68.0091C79.981 66.0146 77.7527 64.7891 75.3431 64.7891H56.9727C56.6358 64.7891 56.3507 65.0535 56.3507 65.3898C56.3507 65.534 56.4284 65.6782 56.5322 65.7983L60.5224 69.523C60.8851 69.8595 61.3515 70.0517 61.8438 70.0277H74.773C75.7057 70.0277 76.4572 70.7006 76.4572 71.5656C76.4572 72.4306 75.7316 73.1275 74.7989 73.1275H65.9117C65.5748 73.1275 65.2899 73.3919 65.2899 73.7282C65.2899 73.8724 65.3676 74.0166 65.4712 74.1369L69.4614 77.8614C69.8241 78.1979 70.2905 78.3661 70.8087 78.3661H74.8507C80.0846 78.3661 84.0488 73.1756 81.1211 68.0091Z" fill="#EB1700"/>
</svg>
