<svg width="152" height="139" viewBox="0 0 152 139" fill="none" xmlns="http://www.w3.org/2000/svg">
<path fill-rule="evenodd" clip-rule="evenodd" d="M106.248 136.155C138.066 128.225 148.636 104.208 151.296 85.3844C153.707 68.3197 150.207 58.2148 136.385 56.6663C122.564 55.1179 126.018 45.6654 126.884 37.4082C127.746 29.1528 129.702 20.7208 123.262 10.469C115.489 -1.91681 94.5155 -6.72578 78.5335 15.462C62.5533 37.6517 49.908 35.4396 34.9986 32.9431C27.2562 31.6474 11.4056 26.4518 3.38973 41.6836C-12.7165 72.2736 33.8035 119.097 33.8035 119.097C33.8035 119.097 58.778 147.986 106.248 136.155Z" fill="#E2F3F7"/>
<path fill-rule="evenodd" clip-rule="evenodd" d="M40.1857 25.7928C40.0506 26.0652 33.4755 55.75 34.0825 56.0985C35.0115 56.6359 38.3204 57.6238 42.0659 58.3855C46.1464 59.2121 50.4546 59.6661 50.6655 59.4419C51.069 59.0119 57.6922 28.8433 57.6922 28.8433L40.1857 25.7928Z" fill="#FF3008"/>
<path fill-rule="evenodd" clip-rule="evenodd" d="M37.0286 50.5404C37.2988 50.7442 48.926 53.1035 49.2202 52.7366C49.5163 52.3715 52.2866 36.7423 52.2866 36.7423C52.2866 36.7423 40.0691 35.1151 40.0654 35.3708C40.0599 35.6247 36.7566 50.3365 37.0286 50.5404Z" fill="#FF4F2D"/>
<path fill-rule="evenodd" clip-rule="evenodd" d="M40.5078 33.0597C40.4356 33.5508 38.598 37.2667 40.1618 38.0266C41.7273 38.7846 49.4239 40.0412 50.3288 39.9744C51.2337 39.9059 51.8389 40.0115 52.2238 38.8384C52.6069 37.6652 53.1176 35.5654 53.1176 35.5654L40.506 33.0597H40.5078Z" fill="#FF5E3E"/>
<path fill-rule="evenodd" clip-rule="evenodd" d="M39.9636 41.9162C40.1246 42.5297 39.9581 42.8818 40.3208 43.4397C40.6853 43.9975 40.9019 44.333 41.1776 44.3904C41.4515 44.446 43.228 44.624 44.2329 44.8315C45.2396 45.0428 46.065 45.2115 46.0613 45.6933C46.0594 46.1752 46.0021 46.4532 45.2507 46.3976C44.5012 46.3364 42.9634 45.9194 42.671 45.9565C42.3786 45.9917 41.3904 45.6896 41.7531 46.2475C42.1158 46.8072 42.8968 48.1786 43.191 48.212C43.6796 48.2676 45.4617 48.6197 46.1186 48.6994C47.2123 48.831 48.4929 47.2131 48.604 46.3198C48.715 45.4302 48.1783 43.7214 47.1901 43.4193C46.2038 43.1172 43.2762 42.5074 42.634 42.374C41.9956 42.2406 39.9636 41.9162 39.9636 41.9162Z" fill="white"/>
<path fill-rule="evenodd" clip-rule="evenodd" d="M40.2098 24.6841C39.9803 24.9158 39.3271 26.6616 39.6842 27.9089C39.897 28.6539 40.5651 29.0264 41.6588 29.3341C44.5697 30.1477 54.7127 31.6637 56.3024 32.1085C57.8902 32.5533 59.019 30.27 59.2615 29.3841L59.502 28.502C59.502 28.502 40.5743 24.3116 40.2098 24.6841Z" fill="#FF4F2D"/>
<path d="M96.134 42.6782C96.134 42.6782 98.7156 42.4429 99.4984 44.5594C100.279 46.6722 102.94 52.0783 102.94 52.0783" stroke="#C7C6B5" stroke-width="0.4"/>
<path fill-rule="evenodd" clip-rule="evenodd" d="M94.6482 37.8223C95.2737 36.9086 96.6025 39.2309 96.682 40.7988C96.7616 42.3648 96.5636 43.2656 95.5846 44.4814C94.8555 45.3858 94.726 45.3024 94.4928 45.3413C93.5712 45.4951 94.0209 38.736 94.6482 37.8223Z" fill="#C7C6B5"/>
<path fill-rule="evenodd" clip-rule="evenodd" d="M108.518 50.6938C108.518 50.6938 109.96 51.4444 110.291 53.9316C110.708 57.0656 109.038 58.6317 109.038 58.6317L108.52 50.6938H108.518Z" fill="#FDF88D"/>
<path fill-rule="evenodd" clip-rule="evenodd" d="M87.3273 96.8359C86.9313 96.2799 86.3724 95.554 86.0819 95.758C85.7895 95.961 85.238 96.9989 85.1881 97.4219C85.1399 97.8409 86.0874 97.4829 86.5001 97.3219C86.9128 97.1619 87.3273 96.8359 87.3273 96.8359ZM97.7461 103.328C97.8256 103.834 97.7701 104.296 97.2742 104.496C96.967 104.618 93.7507 104.839 91.2968 104.789C88.843 104.733 81.7867 104.618 81.0335 104.566C80.136 104.505 79.17 104.45 78.9572 104.142C78.6 103.632 79.3384 101.501 79.3384 101.501C79.3384 101.501 84.681 102.205 87.7881 102.355C90.8934 102.507 95.1775 102.978 96.2027 102.874C97.2279 102.771 97.4352 102.689 97.4352 102.689C97.4352 102.689 97.6757 102.865 97.7479 103.328H97.7461ZM88.4932 97.151C88.4932 97.151 88.4192 97.6479 87.9343 97.9609L88.4932 97.151ZM89.5739 97.7539C89.5739 97.7539 89.4851 98.484 89.1298 98.745L89.5739 97.7539ZM90.6084 98.389C90.6084 98.389 90.5714 99.0679 90.242 99.5199L90.6084 98.389ZM91.6854 99.132C91.6854 99.132 91.6503 99.809 91.319 100.263L91.6854 99.132ZM92.7088 99.9759C92.7088 99.9759 92.7847 100.356 92.4571 100.81L92.7088 99.9759Z" fill="#9CD9E2"/>
<path fill-rule="evenodd" clip-rule="evenodd" d="M26.1324 87.5214C25.1682 87.5214 19.7109 86.8783 19.0706 88.8076C18.4266 90.7351 19.0706 95.237 20.3549 96.202C21.6392 97.166 26.1324 87.5214 26.1324 87.5214Z" fill="white"/>
<path fill-rule="evenodd" clip-rule="evenodd" d="M115.345 88.4467C113.078 91.69 109.301 98.553 105.948 102.076C102.469 105.736 97.4796 110.273 92.4572 110.436C88.7875 110.555 80.2934 110.542 74.7842 110.336C72.7578 110.26 63.5827 109.849 60.5459 107.197C57.5109 104.547 67.2042 94.529 57.8348 88.3985C48.6559 82.3937 43.7334 81.1445 43.7334 81.1445L49.8903 78.0624L78.4058 80.9833C78.4058 80.9833 70.9979 90.1073 75.3264 96.073C78.1707 99.991 80.5117 99.48 84.7236 100.454C88.9374 101.427 92.8254 101.752 96.0676 98.833C99.3062 95.912 104.974 87.7961 105.948 84.2285" fill="#FF431E"/>
<path fill-rule="evenodd" clip-rule="evenodd" d="M48.998 99.32L39.9302 97.689L40.0875 97.127L49.8104 98.261L48.998 99.32Z" fill="#D2EEF2"/>
<path fill-rule="evenodd" clip-rule="evenodd" d="M47.6213 79.3597C47.6213 79.3597 47.2549 75.1378 48.2283 73.8368C49.1998 72.5395 50.3768 71.8945 52.3199 71.8945C54.263 71.8945 66.8802 72.1002 68.6549 71.8648C71.342 71.5072 77.2712 72.8694 78.4075 73.3568C79.54 73.8442 80.5134 78.7111 80.1877 79.3597C79.8639 80.0084 78.4056 80.9851 78.4056 80.9851L47.6213 79.3597Z" fill="#325847"/>
<path fill-rule="evenodd" clip-rule="evenodd" d="M47.6213 79.3597C47.6213 79.3597 47.2549 75.1378 48.2283 73.8368C49.1998 72.5395 50.3768 71.8945 52.3199 71.8945C54.263 71.8945 66.8802 72.1002 68.6549 71.8648C71.342 71.5072 77.2712 72.8694 78.4075 73.3568C79.54 73.8442 80.5134 78.7111 80.1877 79.3597C79.8639 80.0084 78.4056 80.9851 78.4056 80.9851L47.6213 79.3597Z" fill="#DA260D"/>
<path fill-rule="evenodd" clip-rule="evenodd" d="M51.9239 58.2203C50.5545 60.0606 48.9371 63.5931 49.3924 65.6651C49.8476 67.7371 51.2929 71.3771 53.125 71.5161C75.8759 73.2286 82.3418 70.2058 83.2542 71.3567C83.5466 71.7274 82.2123 74.4036 83.3837 79.1815C85.9671 89.6973 85.6118 95.876 85.6525 97.04C85.6784 97.689 91.0377 98.304 90.266 96.957C89.4703 95.556 90.7101 77.5153 90.8138 73.6567C91.0044 66.3416 89.5498 64.0861 86.5852 63.1631C84.4367 62.4978 69.5303 61.6248 66.3325 61.1652C63.1384 60.7037 51.9239 58.2184 51.9239 58.2184V58.2203ZM68.9326 21.9061C68.0869 22.9532 68.1146 24.6527 68.0739 25.4422C67.9536 27.8849 69.4785 30.0292 69.4785 30.0292C69.4785 30.0292 69.4674 29.8068 67.6131 29.3713C65.7588 28.9376 62.1317 27.7626 62.1317 27.7626C62.1317 27.7626 63.231 25.0159 63.6233 23.9892C65.0778 20.1862 63.849 16.587 63.9138 16.2441C63.9767 15.905 66.8451 17.5933 66.8451 17.5933L68.0702 21.8097L68.9326 21.9042V21.9061Z" fill="#C6A581"/>
<path fill-rule="evenodd" clip-rule="evenodd" d="M73.6035 10.8137C74.068 11.3085 74.6972 13.2656 74.3271 15.3821C74.0032 17.2503 75.1895 18.5643 75.3282 18.9776C75.4818 19.4298 74.3419 19.3483 74.3419 19.3483C74.3419 19.3483 73.9903 21.0404 73.7775 21.7446C73.5647 22.4526 73.2982 23.3496 72.2267 23.3459C71.4069 23.3422 68.3109 23.3366 67.3782 21.2424C66.4436 19.1481 65.7441 15.8214 66.8563 14.2442C67.9667 12.6689 72.9003 10.0631 73.6035 10.8137Z" fill="#C6A581"/>
<path d="M66.4121 15.9938L73.807 16.472M74.9044 16.7592C74.7749 17.7322 74.4399 18.4902 74.1512 18.455C73.8625 18.4161 73.733 17.5951 73.8607 16.6202C73.9884 15.6491 74.3252 14.8892 74.6139 14.9281C74.9025 14.9652 75.0321 15.7862 74.9044 16.7592Z" stroke="#FF0000" stroke-width="0.25"/>
<path fill-rule="evenodd" clip-rule="evenodd" d="M68.5753 27.8739C68.5753 27.8739 70.3648 31.3156 71.6288 34.533C73.0352 38.1266 72.4671 41.0586 70.5443 42.2132C67.787 46.4814 64.8223 56.8545 64.8223 56.8545L51.265 58.1111L50.9504 54.5601C50.9504 54.5601 52.1515 40.7212 55.3326 34.09C57.7495 29.049 62.1612 25.7871 62.8404 25.7315C64.5374 25.6018 68.5772 27.8739 68.5772 27.8739" fill="#EDB9B6"/>
<path fill-rule="evenodd" clip-rule="evenodd" d="M61.4322 17.847C57.9291 19.9209 58.5879 7.90938 47.1865 11.8348C42.0234 13.614 37.1934 13.7715 34.7173 10.6913C30.9773 6.03568 30.2223 19.0813 35.526 23.4626C40.1062 27.2471 44.22 24.482 49.335 21.9206C54.4518 19.3593 56.0618 23.1735 59.6612 24.1131C65.5146 25.644 69.9319 20.5103 67.5595 14.0088C66.8451 12.0498 67.6872 14.1459 61.4341 17.847" fill="#22464C"/>
<path fill-rule="evenodd" clip-rule="evenodd" d="M82.6565 62.3923C82.6565 62.3923 73.3 61.8919 67.5077 61.0078C66.2974 60.8244 65.2703 60.3629 65.2703 60.3629L65.1352 55.8129L52.0979 55.0827L49.1796 61.1302C48.0378 67.0979 48.5004 73.7254 56.3228 74.35C62.983 74.8838 79.1607 73.6179 79.8473 73.579C80.6615 73.0286 82.0902 68.0505 82.5491 66.0471C82.8286 62.4701 82.6565 62.3923 82.6565 62.3923Z" fill="#528C8F"/>
<path fill-rule="evenodd" clip-rule="evenodd" d="M71.2882 47.4579C73.6772 47.9471 79.2456 49.6707 80.256 49.9636C83.2503 50.8309 92.5735 52.5879 93.162 52.51C93.5617 52.4544 94.387 52.9493 94.4851 54.5635C94.5166 55.101 94.5832 56.2445 93.8282 56.1074C93.2008 55.9962 91.7018 56.0462 91.2059 56.0203C90.09 55.9647 90.3731 56.1166 86.7719 55.8887C82.288 55.6033 75.4723 55.29 68.9934 53.9316C68.5474 53.8389 67.7424 53.0976 67.2724 51.9485C66.8523 50.918 67.5981 51.0959 67.9941 49.7708C68.6307 47.6432 71.2882 47.4579 71.2882 47.4579Z" fill="#C6A581"/>
<path fill-rule="evenodd" clip-rule="evenodd" d="M109.368 102.144C108.701 103.149 108.452 108.746 110.454 112.256C112.456 115.764 116.294 119.276 123.136 119.191C130.07 119.106 133.399 115.764 135.651 111.17C138.399 105.564 136.484 99.47 133.649 95.795C130.812 92.1158 125.556 90.1105 118.965 92.1158C111.244 94.464 109.369 102.144 109.369 102.144" fill="#22464C"/>
<path fill-rule="evenodd" clip-rule="evenodd" d="M116.7 102.558C116.45 103.373 116.011 104.817 116.761 106.95C117.512 109.078 119.888 111.085 123.086 111.022C126.276 110.961 128.342 109.143 128.906 106.572C129.469 104.002 128.406 100.74 126.717 99.424C125.025 98.108 122.146 97.669 119.768 98.923C117.388 100.176 116.7 102.558 116.7 102.558Z" fill="#E7E5D5"/>
<path fill-rule="evenodd" clip-rule="evenodd" d="M25.7937 101.707C25.1275 102.71 24.8759 108.309 26.8763 111.817C28.8805 115.327 32.7186 118.838 39.5602 118.754C46.4943 118.669 49.8235 115.327 52.0756 110.731C54.8237 105.127 52.9102 99.033 50.0733 95.356C47.2364 91.6789 41.9807 89.6736 35.3871 91.6789C27.6684 94.027 25.7937 101.705 25.7937 101.705" fill="#22464C"/>
<path fill-rule="evenodd" clip-rule="evenodd" d="M33.3219 101.723C33.0721 102.539 32.6335 103.981 33.3867 106.112C34.1362 108.243 36.5105 110.249 39.7064 110.186C42.8986 110.124 44.9657 108.306 45.5302 105.736C46.0927 103.165 45.0287 99.903 43.3372 98.587C41.6495 97.272 38.7682 96.834 36.3883 98.087C34.0103 99.34 33.3219 101.723 33.3219 101.723Z" fill="#E7E5D5"/>
<path fill-rule="evenodd" clip-rule="evenodd" d="M101.323 60.0941C101.323 60.0941 99.4447 60.3036 99.861 63.0187C100.279 65.7338 103.505 75.1451 103.199 83.1756C102.885 91.4285 100.488 93.725 97.3591 97.483C94.2316 101.246 92.9788 102.08 92.9788 102.08C92.9788 102.08 97.15 102.914 101.112 100.412C105.076 97.902 124.681 88.6058 124.681 88.6058C124.681 88.6058 127.392 80.0434 116.026 73.149C107.391 67.9115 103.616 60.5111 103.409 59.4696C102.158 59.8866 101.323 60.0941 101.323 60.0941Z" fill="#FF431E"/>
<path fill-rule="evenodd" clip-rule="evenodd" d="M97.8811 56.2297C98.0384 56.1778 99.1321 56.2816 99.7058 56.8042C100.279 57.3268 100.957 58.424 101.321 60.4608C102.117 60.4056 102.862 60.0506 103.407 59.4675C103.407 59.4675 103.253 59.4156 104.295 59.4675C105.337 59.5193 108.44 59.2858 108.935 58.7354C109.432 58.1886 109.562 52.9919 108.102 50.0692C106.901 49.6503 104.66 49.7022 102.313 51.5296C99.9667 53.3589 99.4448 54.0872 98.8193 54.2967C98.192 54.5079 97.2038 54.6636 97.2038 54.6636L97.8811 56.2297ZM106.929 111.522C106.929 111.522 103.172 101.104 107.824 94.058C112.012 87.7178 120.232 85.214 126.493 87.2304C132.751 89.245 137.335 94.953 136.888 96.521C136.44 98.087 134.204 98.76 131.521 98.76C128.838 98.76 124.681 96.807 120.371 99.153C116.718 101.14 117.886 103.686 116.318 106.822C114.755 109.954 111.847 112.641 106.929 111.522ZM18.1343 98.669C17.2275 97.526 25.507 84.2206 36.8492 81.8742C42.6044 80.6863 47.8046 80.3582 52.4014 82.1189C61.1731 85.4734 65.3443 95.5 64.9261 101.974C64.8028 103.863 64.5941 105.745 64.3006 107.615C64.3006 107.615 47.4048 108.032 31.1383 103.645C27.204 102.587 19.0411 99.813 18.1343 98.669Z" fill="#FF431E"/>
<path d="M40.8371 98.216C40.8371 98.216 45.5283 99 49.9086 99.155M39.897 102.134C39.897 102.134 44.59 102.916 48.9703 103.073L39.897 102.134ZM40.367 100.252C40.367 100.252 45.0582 101.036 49.4385 101.192L40.367 100.252Z" stroke="#EDB9B6" stroke-width="0.5"/>
<path fill-rule="evenodd" clip-rule="evenodd" d="M64.3338 21.1297C65.9715 20.4884 63.6509 19.5395 62.9514 18.5146C62.6368 18.0569 61.878 16.9893 62.8459 16.3462C63.8082 15.7068 64.0543 15.7624 64.8519 14.5226C65.6495 13.2845 65.755 9.68537 67.6648 8.70857C71.1864 6.90717 75.2337 8.48247 75.1226 10.7918C75.0745 11.7666 75.2115 14.2501 71.2364 15.0674C69.7097 15.3806 68.2921 13.9666 68.616 18.0828C68.8418 20.9814 66.2843 22.9923 65.0277 23.2351" fill="#22464C"/>
<path fill-rule="evenodd" clip-rule="evenodd" d="M75.876 11.3199C75.876 10.1708 74.7286 7.24628 72.2507 5.97858C69.4785 4.56078 67.045 3.65638 62.8664 5.46708C58.5694 7.32598 57.5756 11.5386 57.9735 13.9628C58.3732 16.3851 60.0813 19.9379 60.0813 19.9379C60.0813 19.9379 62.9682 20.6199 64.0045 20.7089C65.0408 20.8015 65.9865 20.8164 66.9099 19.7451C67.8352 18.6739 67.7575 18.0123 67.6613 16.2905C67.5632 14.5706 67.9814 13.7885 68.816 13.0583C69.5155 12.443 70.2817 12.1706 71.9435 12.0483C73.6034 11.9278 75.876 12.0297 75.876 11.3199Z" fill="#E7E5D5"/>
<path fill-rule="evenodd" clip-rule="evenodd" d="M107.824 94.059C107.101 95.167 106.549 96.379 106.187 97.652C113.361 93.975 124.683 88.6079 124.683 88.6079C124.683 88.6079 124.89 87.9462 124.95 86.8435C118.937 85.65 111.675 88.2279 107.824 94.059ZM64.3007 107.616C64.3007 107.616 64.7282 105.049 64.9262 101.974C65.3444 95.5 61.1732 85.4757 52.4015 82.1193C49.8532 81.1426 47.1181 80.8109 44.2034 80.9073L43.7334 81.1445C43.7334 81.1445 48.6559 82.3918 57.8348 88.3984C67.2042 94.529 57.5109 104.547 60.5477 107.197C60.7106 107.341 60.8956 107.475 61.0936 107.605C63.1182 107.645 64.3007 107.616 64.3007 107.616ZM75.1728 95.788C75.1728 95.788 76.0759 104.443 84.7884 103.941C93.5009 103.438 94.8814 99.706 94.8814 99.706C94.8814 99.706 88.5525 101.04 81.4 99.8C77.6748 99.157 76.7365 97.697 75.1728 95.788Z" fill="#DA260D"/>
<path fill-rule="evenodd" clip-rule="evenodd" d="M99.5263 101.824C99.5911 102.235 99.5448 102.613 99.134 102.775C98.8786 102.876 96.2193 103.056 94.1911 103.015C92.1629 102.969 86.3262 102.876 85.7044 102.832C84.9623 102.782 84.1628 102.739 83.987 102.487C83.6909 102.068 84.3016 100.332 84.3016 100.332C84.3016 100.332 88.7208 100.906 91.2894 101.031C93.858 101.155 97.4 101.538 98.2476 101.453C99.0933 101.368 99.2654 101.305 99.2654 101.305C99.2654 101.305 99.4652 101.444 99.5245 101.824" fill="#E7E5D5"/>
<path fill-rule="evenodd" clip-rule="evenodd" d="M99.2634 101.303C99.2634 101.303 99.1764 100.684 98.6731 100.502C98.1697 100.321 95.7862 99.479 93.4804 98.024C92.3645 97.318 91.1449 96.534 90.8118 96.321C90.4787 96.108 89.2389 97.111 89.1001 97.244C88.9631 97.379 88.1803 97.568 87.6751 97.559C87.1662 97.548 86.9645 97.474 86.7332 97.231C86.5019 96.985 86.6906 96.062 86.2169 96.052C85.745 96.043 85.336 96.169 85.2305 96.338C85.125 96.508 84.6901 97.906 84.6106 98.488C84.531 99.07 84.3034 100.265 84.3015 100.334C84.3015 100.402 85.8153 100.812 88.9224 101.016C91.7057 101.197 96.6208 101.512 97.5017 101.505C98.7212 101.497 99.2653 101.305 99.2653 101.305" fill="white"/>
<path fill-rule="evenodd" clip-rule="evenodd" d="M52.4365 37.5944C52.4365 37.5944 61.4951 32.3661 65.8402 33.5912C65.583 32.2234 63.2106 30.8112 61.1194 30.6944C58.2455 30.5332 55.8508 32.2419 54.3408 34.453C53.9318 35.0534 52.4365 37.5944 52.4365 37.5944ZM67.8574 45.8139C67.8574 45.8139 56.5966 52.623 56.097 53.1568C55.3105 53.9982 56.0729 56.2111 56.6873 56.2519C57.3017 56.2926 67.2356 50.1488 67.2356 50.1488L67.0801 47.6691L67.8574 45.8158V45.8139Z" fill="#FF3008"/>
<path fill-rule="evenodd" clip-rule="evenodd" d="M57.6293 53.3574L50.6138 54.9772L50.8358 57.0381L57.8384 54.6788L57.6293 53.3574Z" fill="#EBEADE"/>
<path fill-rule="evenodd" clip-rule="evenodd" d="M58.4436 34.9352C58.7582 36.429 65.4332 48.8167 66.7989 51.6245C66.7989 51.6245 68.4053 55.1588 71.4717 53.6391C74.4511 52.1638 71.8103 46.7261 71.8103 46.7261C70.7925 43.6867 68.7976 39.9633 68.8883 40.2525L64.5764 33.1245C64.5764 33.1245 60.074 32.6464 58.4436 34.9352Z" fill="#C6A581"/>
<path fill-rule="evenodd" clip-rule="evenodd" d="M66.1288 32.7278C67.3187 34.5552 69.9077 38.5139 70.696 39.5666C70.1779 41.1216 67.5908 43.366 62.7608 45.7864C59.1577 41.5423 58.349 37.8838 58.2602 35.6895C58.1917 34.0048 58.8949 32.3423 60.2644 31.3601C61.1045 30.7559 62.226 30.3648 63.6046 30.7744C64.6539 31.0858 65.5292 31.8086 66.1288 32.7278Z" fill="#EDB9B6"/>
<path fill-rule="evenodd" clip-rule="evenodd" d="M97.9976 55.0844C98.018 55.6682 97.7885 56.1222 97.4184 56.5114C97.2591 56.6681 97.0665 56.7866 96.855 56.8582C96.6434 56.9298 96.4185 56.9525 96.197 56.9247C95.5141 56.8061 95.1884 57.0415 94.6388 56.0536C94.4482 55.7089 94.3538 55.2252 94.4686 54.8471C94.6184 54.3541 94.8942 53.9445 95.2847 53.6165C95.474 53.4599 95.6963 53.3483 95.9349 53.2902C96.1735 53.2321 96.4222 53.229 96.6622 53.2811C96.9022 53.3332 97.1272 53.4391 97.3204 53.591C97.5136 53.7428 97.6698 53.9366 97.7774 54.1577C97.9199 54.4579 98.0198 54.7711 97.9994 55.0844" fill="#22464C"/>
<path fill-rule="evenodd" clip-rule="evenodd" d="M92.7661 52.5473C92.7661 52.5473 95.1237 51.4965 96.4358 51.6281C97.746 51.7597 101.614 53.9725 101.414 54.7787C101.258 55.4218 99.5818 54.649 99.319 54.3858C99.0543 54.1227 99.1487 55.6795 98.7545 56.0724C98.3604 56.4671 97.5665 56.6988 97.5184 56.4838C97.3981 55.9686 97.5831 54.3191 97.0576 53.9262C96.5338 53.5314 95.5179 53.3016 94.9942 54.3525C94.8996 54.5153 94.8414 54.6968 94.8237 54.8843C94.8059 55.0718 94.8289 55.261 94.8912 55.4387C94.9535 55.6165 95.0535 55.7786 95.1844 55.9139C95.3152 56.0492 95.4739 56.1545 95.6493 56.2225C96.0416 56.3541 97.3092 56.1687 97.485 56.6803C97.6331 57.1176 97.6146 57.1547 97.3462 57.2363C97.0779 57.3159 96.2378 57.2733 95.7474 57.3048C95.2551 57.3382 94.8628 57.5013 94.3058 57.24C93.7487 56.9768 92.3071 55.8277 92.3071 55.8277L92.7661 52.5473Z" fill="#C6A581"/>
<path fill-rule="evenodd" clip-rule="evenodd" d="M67.5595 14.0107C66.8452 12.0517 67.6853 14.1478 61.4322 17.8471C60.1664 18.5977 59.4392 17.5024 58.4954 15.9882C59.1431 17.9861 60.0795 19.9395 60.0795 19.9395C60.0795 19.9395 62.9664 20.6178 64.0027 20.7086C65.039 20.8013 65.9865 20.8161 66.9099 19.7449C67.8352 18.6737 67.7575 18.0102 67.6613 16.2903C67.6243 15.6231 67.665 15.1004 67.776 14.6649C67.7101 14.4442 67.6379 14.2254 67.5595 14.0088" fill="#C7C6B5"/>
<path fill-rule="evenodd" clip-rule="evenodd" d="M69.4563 29.9958L69.4782 30.0287C69.4782 30.0287 69.4782 30.0176 69.4563 29.9958Z" fill="#EDB9B6"/>
</svg>
