<svg width="18" height="19" viewBox="0 0 18 19" fill="none" xmlns="http://www.w3.org/2000/svg">
<path fill-rule="evenodd" clip-rule="evenodd" d="M9.0008 0.296875C6.55657 0.296875 6.24981 0.307565 5.2898 0.351255C4.33167 0.395125 3.67766 0.546815 3.10541 0.769375C2.51346 0.999255 2.01133 1.30677 1.51108 1.80721C1.01045 2.30746 0.70294 2.80958 0.47232 3.40134C0.24919 3.97378 0.0973099 4.62799 0.0541899 5.58574C0.0112499 6.54575 0 6.8527 0 9.29698C0 11.7413 0.0108799 12.0471 0.0543799 13.0071C0.0984399 13.9652 0.25013 14.6192 0.4725 15.1915C0.70257 15.7834 1.01007 16.2856 1.51052 16.7858C2.01058 17.2864 2.51271 17.5947 3.10428 17.8246C3.67691 18.0471 4.33111 18.1988 5.28905 18.2427C6.24906 18.2864 6.55563 18.2971 8.9997 18.2971C11.4442 18.2971 11.75 18.2864 12.71 18.2427C13.6681 18.1988 14.3229 18.0471 14.8955 17.8246C15.4873 17.5947 15.9887 17.2864 16.4887 16.7858C16.9894 16.2856 17.2969 15.7834 17.5275 15.1917C17.7487 14.6192 17.9006 13.965 17.9456 13.0073C17.9887 12.0473 18 11.7413 18 9.29698C18 6.8527 17.9887 6.54594 17.9456 5.58593C17.9006 4.6278 17.7487 3.97378 17.5275 3.40154C17.2969 2.80959 16.9894 2.30746 16.4887 1.80721C15.9881 1.30658 15.4875 0.999065 14.895 0.769375C14.3212 0.546815 13.6668 0.395125 12.7087 0.351255C11.7487 0.307565 11.4431 0.296875 8.998 0.296875H9.0008ZM8.7009 1.91867L9.0008 1.91877C11.4039 1.91877 11.6887 1.92739 12.6376 1.97051C13.5151 2.01064 13.9914 2.15727 14.3086 2.28046C14.7286 2.44359 15.0281 2.63859 15.3429 2.95359C15.6579 3.2686 15.8529 3.56859 16.0164 3.98861C16.1396 4.30548 16.2864 4.78173 16.3263 5.65924C16.3695 6.608 16.3788 6.89301 16.3788 9.29488C16.3788 11.6968 16.3695 11.9818 16.3263 12.9306C16.2862 13.8081 16.1396 14.2844 16.0164 14.6012C15.8533 15.0212 15.6579 15.3203 15.3429 15.6351C15.0279 15.9501 14.7288 16.1451 14.3086 16.3083C13.9918 16.432 13.5151 16.5783 12.6376 16.6184C11.6889 16.6615 11.4039 16.6709 9.0008 16.6709C6.59762 16.6709 6.3128 16.6615 5.36404 16.6184C4.48653 16.5779 4.01028 16.4313 3.69284 16.3081C3.27283 16.1449 2.97283 15.9499 2.65783 15.6349C2.34282 15.3199 2.14782 15.0207 1.98432 14.6005C1.86113 14.2836 1.71432 13.8074 1.67438 12.9298C1.63125 11.9811 1.62263 11.6961 1.62263 9.29268C1.62263 6.88926 1.63125 6.60575 1.67438 5.65699C1.71451 4.77948 1.86113 4.30322 1.98432 3.98597C2.14745 3.56597 2.34282 3.26596 2.65783 2.95096C2.97283 2.63596 3.27283 2.44095 3.69284 2.27745C4.01009 2.1537 4.48653 2.00745 5.36404 1.96714C6.1943 1.92964 6.51606 1.91839 8.1934 1.91651V1.91877C8.3502 1.91853 8.5189 1.91859 8.7009 1.91867ZM12.725 4.49279C12.725 3.89635 13.2088 3.41316 13.805 3.41316C14.4013 3.41316 14.885 3.89653 14.885 4.49279C14.885 5.08905 14.4013 5.57281 13.805 5.57281C13.2088 5.57281 12.725 5.08905 12.725 4.49279ZM9.0006 4.67505C6.44827 4.67515 4.37891 6.74457 4.37891 9.29698C4.37891 11.8495 6.44837 13.918 9.0008 13.918C11.5533 13.918 13.622 11.8495 13.622 9.29698C13.622 6.7445 11.5531 4.67505 9.0006 4.67505ZM12.0009 9.29698C12.0009 7.63998 10.6577 6.29694 9.0009 6.29694C7.3439 6.29694 6.00085 7.63998 6.00085 9.29698C6.00085 10.9538 7.3439 12.297 9.0009 12.297C10.6577 12.297 12.0009 10.9538 12.0009 9.29698Z" fill="#C4C4C4"/>
</svg>
