<svg width="20" height="17" viewBox="0 0 20 17" fill="none" xmlns="http://www.w3.org/2000/svg">
<path d="M6.2896 16.2969C13.8368 16.2969 17.9648 10.1407 17.9648 4.80202C17.9648 4.62717 17.9648 4.4531 17.9528 4.27982C18.7559 3.70792 19.4491 2.9998 20 2.18863C19.2511 2.51534 18.4567 2.7296 17.6432 2.82426C18.4998 2.31936 19.1409 1.52525 19.4472 0.589723C18.6417 1.0603 17.7605 1.39194 16.8416 1.57033C16.2229 0.922643 15.4047 0.493763 14.5135 0.350053C13.6223 0.206343 12.7079 0.355812 11.9116 0.775352C11.1154 1.19488 10.4819 1.86108 10.109 2.67085C9.7361 3.48063 9.6446 4.38883 9.8488 5.25492C8.2174 5.1744 6.62144 4.757 5.16451 4.02981C3.70759 3.30263 2.42227 2.28192 1.392 1.03395C0.86727 1.92332 0.70656 2.97616 0.94258 3.9781C1.17861 4.98004 1.79362 5.85575 2.6624 6.42697C2.00939 6.40787 1.37062 6.23444 0.8 5.92126C0.8 5.9378 0.8 5.95513 0.8 5.97246C0.80026 6.90517 1.12821 7.80917 1.72823 8.53097C2.32824 9.25277 3.16338 9.74807 4.092 9.93277C3.4879 10.095 2.85406 10.1187 2.2392 10.0021C2.50141 10.8048 3.01189 11.5068 3.69926 12.0098C4.38662 12.5129 5.21649 12.7918 6.0728 12.8076C4.61979 13.932 2.82485 14.5423 0.9768 14.5405C0.65032 14.5398 0.32416 14.5204 0 14.4822C1.87651 15.6678 4.05993 16.2967 6.2896 16.2937" fill="#C4C4C4"/>
</svg>
